Coordinates
version=1
nRows=8
nColumns=40
inDegrees=yes

Units are S.I. units (second, meters, Newtons, ...)
If the header above contains a line with 'inDegrees', this indicates whether rotational values are in degrees (yes) or radians (no).

endheader
time	pelvis_tilt	pelvis_list	pelvis_rotation	pelvis_tx	pelvis_ty	pelvis_tz	hip_flexion_r	hip_adduction_r	hip_rotation_r	knee_angle_r	knee_angle_r_beta	ankle_angle_r	subtalar_angle_r	mtp_angle_r	hip_flexion_l	hip_adduction_l	hip_rotation_l	knee_angle_l	knee_angle_l_beta	ankle_angle_l	subtalar_angle_l	mtp_angle_l	lumbar_extension	lumbar_bending	lumbar_rotation	arm_flex_r	arm_add_r	arm_rot_r	elbow_flex_r	pro_sup_r	wrist_flex_r	wrist_dev_r	arm_flex_l	arm_add_l	arm_rot_l	elbow_flex_l	pro_sup_l	wrist_flex_l	wrist_dev_l
      1.67000000	      1.22048363	     -7.34904966	     87.59055615	      0.14060822	      0.89117537	     -0.66824269	    -13.25358161	      6.75812209	      2.84410769	      4.24137649	      0.07402598	     11.41183262	      0.00000000	      0.00000000	     32.51299033	      0.72280999	      5.42812251	      2.28831722	      0.03993867	     -2.57938673	      0.00000000	      0.00000000	      2.69935886	      0.47398974	      3.89123026	      0.00000000	      0.00000000	      0.00000000	      0.00000000	      0.00000000	      0.00000000	      0.00000000	      0.00000000	      0.00000000	      0.00000000	      0.00000000	      0.00000000	      0.00000000	      0.00000000
      1.68000000	      0.90340498	     -7.24088215	     87.53898516	      0.14019372	      0.89086662	     -0.68308231	    -13.27038944	      6.23200057	      2.21207966	      6.07524490	      0.10603303	     10.71559640	      0.00000000	      0.00000000	     32.57080199	      1.24476828	      4.64807049	      4.05202546	      0.07072119	     -3.88116022	      0.00000000	      0.00000000	      2.72897975	      0.11180792	      3.83556597	      0.00000000	      0.00000000	      0.00000000	      0.00000000	      0.00000000	      0.00000000	      0.00000000	      0.00000000	      0.00000000	      0.00000000	      0.00000000	      0.00000000	      0.00000000	      0.00000000
      1.69000000	      0.60314323	     -7.11575344	     87.50322682	      0.13977980	      0.89080987	     -0.69798316	    -13.12087257	      5.69857382	      1.42496472	      8.17930698	      0.14275584	      9.72418082	     -0.00000000	      0.00000000	     32.60786172	      1.72039777	      3.85091493	      5.91133359	      0.10317223	     -5.30355941	     -0.00000000	     -0.00000000	      2.73915765	     -0.22339096	      3.75889444	     -0.00000000	     -0.00000000	     -0.00000000	      0.00000000	      0.00000000	      0.00000000	     -0.00000000	      0.00000000	      0.00000000	      0.00000000	      0.00000000	      0.00000000	      0.00000000	     -0.00000000
      1.70000000	      0.23711655	     -7.05722733	     87.46162029	      0.13933865	      0.89092426	     -0.71292833	    -12.66533784	      5.05134953	      0.46885155	     10.62622977	      0.18546270	      8.42969966	      0.00000000	      0.00000000	     32.67165051	      2.21916672	      3.07394137	      7.73616997	      0.13502164	     -6.72946080	      0.00000000	      0.00000000	      2.84682038	     -0.62897718	      3.69573192	      0.00000000	      0.00000000	      0.00000000	      0.00000000	      0.00000000	      0.00000000	      0.00000000	      0.00000000	      0.00000000	      0.00000000	      0.00000000	      0.00000000	      0.00000000	      0.00000000
      1.71000000	     -0.15665550	     -7.06202278	     87.43275609	      0.13885937	      0.89121201	     -0.72780947	    -11.89155150	      4.31829442	     -0.66448944	     13.43385203	      0.23446495	      6.78761012	      0.00000000	      0.00000000	     32.74851316	      2.72043254	      2.42442940	      9.47637436	      0.16539393	     -7.98976170	      0.00000000	      0.00000000	      3.02853186	     -1.07287198	      3.59630416	      0.00000000	      0.00000000	      0.00000000	      0.00000000	      0.00000000	      0.00000000	      0.00000000	      0.00000000	      0.00000000	      0.00000000	      0.00000000	      0.00000000	      0.00000000	      0.00000000
      1.72000000	     -0.55010554	     -6.99353569	     87.39815032	      0.13835174	      0.89188980	     -0.74264812	    -10.98533431	      3.50860372	     -1.78195339	     16.52613206	      0.28843542	      4.72746188	      0.00000000	     -0.00000000	     32.66303362	      3.19966739	      1.88467921	     11.08757807	      0.19351474	     -8.83059091	      0.00000000	     -0.00000000	      3.11081640	     -1.50207825	      3.52043136	      0.00000000	     -0.00000000	     -0.00000000	      0.00000000	      0.00000000	      0.00000000	     -0.00000000	      0.00000000	      0.00000000	      0.00000000	      0.00000000	      0.00000000	     -0.00000000	      0.00000000
      1.73000000	     -1.01436514	     -6.97295505	     87.39110342	      0.13776334	      0.89276786	     -0.75740016	     -9.78509193	      2.54349880	     -2.95237264	     19.96301209	      0.34842029	      2.27793148	      0.00000000	      0.00000000	     32.54288371	      3.74852221	      1.45922169	     12.55959358	      0.21920626	     -9.28883125	      0.00000000	      0.00000000	      3.26453282	     -2.01788716	      3.39153212	      0.00000000	      0.00000000	      0.00000000	      0.00000000	      0.00000000	      0.00000000	      0.00000000	      0.00000000	      0.00000000	      0.00000000	      0.00000000	      0.00000000	      0.00000000	      0.00000000
      1.74000000	     -1.51399453	     -6.96826431	     87.38576373	      0.13710379	      0.89388307	     -0.77197776	     -8.34103217	      1.46514374	     -3.98165397	     23.70417709	      0.41371594	     -0.45780460	      0.00000000	      0.00000000	     32.33347994	      4.33017483	      1.10533916	     13.84606042	      0.24165934	     -9.29629840	      0.00000000	      0.00000000	      3.41345519	     -2.56009767	      3.26762953	      0.00000000	      0.00000000	      0.00000000	      0.00000000	      0.00000000	      0.00000000	      0.00000000	      0.00000000	      0.00000000	      0.00000000	      0.00000000	      0.00000000	      0.00000000	      0.00000000
